<svg xmlns="http://www.w3.org/2000/svg" xmlns:xlink="http://www.w3.org/1999/xlink" version="1.1" x="0px" y="0px" viewBox="0 0 90 112.5" enable-background="new 0 0 90 90" xml:space="preserve"><path d="M75.1,77.2c0,1.1-0.9,2-2,2c-1.1,0-2-0.9-2-2c0-1.1,0.9-2,2-2C74.2,75.2,75.1,76.1,75.1,77.2z M54,76.1c-1.1,0-2,0.9-2,2  c0,1.1,0.9,2,2,2s2-0.9,2-2C55.9,76.9,55.1,76.1,54,76.1z M29.4,54.2c-1.1,0-2,0.9-2,2s0.9,2,2,2s2-0.9,2-2S30.5,54.2,29.4,54.2z   M82.8,59.8c-1.1,0-2,0.9-2,2s0.9,2,2,2c1.1,0,2-0.9,2-2S83.9,59.8,82.8,59.8z M48.8,35.8c0,1.1,0.9,2,2,2s2-0.9,2-2s-0.9-2-2-2  S48.8,34.7,48.8,35.8z M67.9,21.2c1.1,0,2-0.9,2-2s-0.9-2-2-2c-1.1,0-2,0.9-2,2S66.8,21.2,67.9,21.2z M77.1,39.4c-1.1,0-2,0.9-2,2  s0.9,2,2,2c1.1,0,2-0.9,2-2S78.1,39.4,77.1,39.4z M31.4,33c1.1,0,2-0.9,2-2c0-1.1-0.9-2-2-2s-2,0.9-2,2C29.4,32.1,30.3,33,31.4,33z   M35.3,8.9c1.1,0,2-0.9,2-2s-0.9-2-2-2s-2,0.9-2,2S34.2,8.9,35.3,8.9z M20.7,44.9c0,1.1,0.9,2,2,2s2-0.9,2-2s-0.9-2-2-2  S20.7,43.8,20.7,44.9z M20.7,19.9c1.1,0,2-0.9,2-2s-0.9-2-2-2s-2,0.9-2,2S19.6,19.9,20.7,19.9z M7,61.4c-1.1,0-2,0.9-2,2  c0,1.1,0.9,2,2,2s2-0.9,2-2C8.9,62.3,8,61.4,7,61.4z M42.4,17.8c-0.2-1.4,0.4-2.7,1.6-3.4c1.2-0.7,2.7-0.5,3.8,0.4  c0.3,0.2,0.6,0.6,0.9,1.1c0.1-1.4-0.5-3-1.7-4.7c-0.3-0.4-0.2-1,0.2-1.3c0.4-0.3,1-0.2,1.3,0.2c3.2,4.5,1.9,7.6,1.2,8.7  c0,0,0,0.1-0.1,0.1c0.2,1.6,0,3.8-0.9,6.8c-0.1,0.4-0.5,0.7-0.9,0.7c-0.1,0-0.2,0-0.3,0c-0.5-0.2-0.8-0.7-0.6-1.2  c0.6-1.9,0.8-3.4,0.9-4.6C47,20.9,46,21.1,45,20.8C43.6,20.5,42.6,19.4,42.4,17.8z M44.4,17.6c0.1,0.8,0.5,1.3,1.1,1.4  c0.6,0.1,1.6-0.1,2.3-0.7c-0.3-1.2-0.8-1.7-1.1-1.9c-0.3-0.3-0.7-0.4-1-0.4c-0.3,0-0.5,0.1-0.7,0.2C44.5,16.4,44.3,16.9,44.4,17.6z   M78.4,50.8c-0.2,0.5-0.8,0.7-1.3,0.5c-8.3-3.4-16.4-1.1-21.1,1c0.9,1.1,1.6,2.2,2.3,3.3c2.8-1,5-0.2,6.1,0.3c0.6,0.3,1.1,0.6,1.6,1  c2-0.8,4.9-1.3,8.4-1.2c0.5,0,1,0.4,1,1c0,0.5-0.4,1-1,1c0,0-0.2,0-0.3,0c-3.2,0-5.3,0.4-6.7,0.8c1,1.3,1.5,2.8,1.2,4  c-0.3,1.1-1.1,1.8-2.4,1.8c0,0,0,0,0,0c-1.4,0-2.6-0.7-3.3-1.8c-0.6-1-0.6-2.2,0-3.2c0.3-0.5,0.6-0.9,1.1-1.3  c-0.2-0.1-0.4-0.2-0.6-0.3c-1.4-0.7-2.8-0.8-4.3-0.4c2.2,4,3,7.4,1.3,9.2c-0.2,0.2-0.5,0.4-0.8,0.6c0,0,0,0-0.1,0.1  c-0.3,0.1-32.7,13.8-41,17.5c-0.5,0.2-1,0.3-1.5,0.3c-1.9,0-3.4-1.5-3.4-3.4c0-0.4,0.1-0.9,0.3-1.3l15.4-42.8c0,0,0-0.1,0.1-0.1  c0.2-0.5,0.4-0.9,0.7-1.2c1.8-1.9,5.6-0.8,9.9,1.7c-0.1-3.8-0.7-7.8-2.6-10.8c-1.5-2.4-3.7-4-6.5-4.6c-0.5-0.1-0.9-0.6-0.7-1.1  c0.1-0.5,0.6-0.9,1.1-0.7c3.4,0.7,6,2.5,7.8,5.4c2.3,3.7,3,8.7,2.9,13.1c2.8,1.9,5.8,4.4,8.4,7c0,0,0,0,0,0c1.4,1.4,2.8,3,4.1,4.5  c4.9-2.3,13.8-5.1,23.1-1.2C78.4,49.8,78.6,50.3,78.4,50.8z M64.8,61.6c0.3,0.5,0.9,0.8,1.6,0.8c0.4,0,0.5-0.1,0.5-0.3  c0.1-0.5-0.3-1.7-1.2-2.7c-0.6,0.4-0.8,0.7-0.9,0.9C64.6,60.9,64.7,61.3,64.8,61.6z M55.4,67c-0.9-0.3-2-0.8-3.1-1.4  c-3.7-1.9-7.8-5.2-11.8-9.1c-3.9-3.9-7.2-8.1-9.1-11.8c-0.5-1-0.9-1.9-1.3-2.8L16,81.1c0,0,0,0,0,0.1c0,0.1-0.1,0.3-0.1,0.4  c0,0.8,0.6,1.4,1.4,1.4c0.2,0,0.3,0,0.5-0.1c0,0,0,0,0,0l0.2-0.1c0,0,0.1,0,0.1,0C24.9,79.9,46.6,70.7,55.4,67z M54.3,53.2  C52.9,54,52,54.6,52,54.6c-0.2,0.1-0.4,0.2-0.6,0.2c-0.3,0-0.6-0.1-0.8-0.4c-0.3-0.4-0.2-1,0.2-1.3c0.1-0.1,0.9-0.6,2.2-1.3  c-1.1-1.3-2.3-2.7-3.7-4c-2.5-2.5-4.9-4.5-7.1-6.1c-0.3,4.5-1.1,8.1-1.2,8.4c-0.1,0.4-0.5,0.7-0.9,0.7c-0.1,0-0.2,0-0.2,0  c-0.5-0.1-0.8-0.6-0.7-1.2c0-0.1,1-4.2,1.2-9.2c-3.2-2-5.7-3-7.3-3c-0.6,0-1,0.1-1.3,0.4c-0.6,0.6-0.6,2.6,1.3,6.2  c1.9,3.5,5,7.5,8.8,11.3c3.8,3.8,7.8,6.9,11.3,8.8c3.6,1.9,5.6,1.9,6.2,1.3c0.9-0.9,0.3-3.5-1.7-7c-1.2,0.7-2.4,1.7-3.6,3.1  c-0.3,0.4-1,0.5-1.4,0.1c-0.4-0.3-0.5-1-0.1-1.4c1.4-1.7,2.8-2.8,4-3.5C56,55.5,55.2,54.4,54.3,53.2z M51.4,42  c0.2,0.2,0.4,0.3,0.7,0.3c0.3,0,0.5-0.1,0.7-0.3c10.2-10.5,10.4-22.2,10.4-22.7c0-0.5-0.4-1-1-1c0,0,0,0,0,0c-0.5,0-1,0.4-1,1  c0,0.1-0.2,11.5-9.8,21.4C51,41,51,41.6,51.4,42z M83.7,27.3c-2.8,7.4-6.5,8.2-8.5,8c-0.2,0-0.3,0-0.5-0.1c-1.5,1.2-3.7,2.4-7.1,3.6  c-0.1,0-0.2,0.1-0.3,0.1c-0.4,0-0.8-0.3-0.9-0.7c-0.2-0.5,0.1-1.1,0.6-1.2c2.5-0.8,4.3-1.7,5.6-2.6c-1-0.8-1.7-1.9-1.9-2.9  c-0.3-1.4,0.4-2.7,1.7-3.3c1.3-0.7,2.8-0.6,3.8,0.1c0.9,0.7,1.4,1.8,1.2,3c-0.1,0.5-0.3,1.2-0.8,2c2-0.6,3.9-2.9,5.3-6.7  c0.2-0.5,0.8-0.7,1.2-0.6C83.7,26.2,83.9,26.8,83.7,27.3z M75.1,29.8c-0.2-0.2-0.5-0.2-0.8-0.2c-0.3,0-0.7,0.1-1,0.3  c-0.5,0.3-0.7,0.7-0.6,1.2c0.1,0.7,0.7,1.5,1.6,1.9c0.8-0.8,1.1-1.5,1.2-2.1C75.6,30.5,75.5,30.1,75.1,29.8z"/><text x="0" y="105" fill="#000000" font-size="5px" font-weight="bold" font-family="'Helvetica Neue', Helvetica, Arial-Unicode, Arial, Sans-serif"></text><text x="0" y="110" fill="#000000" font-size="5px" font-weight="bold" font-family="'Helvetica Neue', Helvetica, Arial-Unicode, Arial, Sans-serif"></text></svg>